<?xml version="1.0" standalone="no"?>
<!DOCTYPE svg PUBLIC "-//W3C//DTD SVG 20010904//EN"
 "http://www.w3.org/TR/2001/REC-SVG-20010904/DTD/svg10.dtd">
<svg version="1.0" xmlns="http://www.w3.org/2000/svg"
 width="235.000000pt" height="215.000000pt" viewBox="0 0 235.000000 215.000000"
 preserveAspectRatio="xMidYMid meet">
<metadata>
Created by potrace 1.15, written by Peter Selinger 2001-2017
</metadata>
<g transform="translate(0.000000,215.000000) scale(0.100000,-0.100000)"
fill="#000000" stroke="none">
<path d="M1016 1739 c16 -18 16 -23 4 -42 -38 -61 -45 -84 -45 -157 1 -57 6
-85 22 -115 68 -128 219 -173 348 -105 52 28 60 29 75 15 9 -8 21 -15 26 -15
5 0 -90 99 -211 220 -121 121 -224 220 -229 220 -5 0 -1 -9 10 -21z m78 -81
c33 -38 46 -68 29 -68 -4 0 -22 5 -40 12 -28 10 -36 10 -43 -1 -11 -18 -2 -41
16 -41 8 0 11 6 8 15 -8 19 1 19 31 -1 31 -20 22 -42 -18 -46 -27 -2 -33 -8
-35 -31 -4 -32 21 -46 49 -29 42 26 68 6 50 -39 -7 -17 -10 -19 -10 -6 -1 9
-6 17 -12 17 -17 0 -5 -45 13 -48 12 -2 21 6 28 22 10 28 37 35 46 12 3 -8 1
-23 -5 -35 -13 -23 10 -54 34 -45 17 7 21 44 5 44 -5 0 -10 -7 -10 -16 0 -8
-4 -13 -9 -9 -12 7 12 68 28 73 6 2 18 -12 26 -32 16 -39 38 -46 65 -21 15 14
19 14 29 1 16 -20 8 -32 -37 -55 -175 -89 -377 62 -341 255 9 47 44 114 59
114 5 0 25 -19 44 -42z"/>
<path d="M414 1720 c-63 -25 -86 -124 -41 -176 14 -16 54 -39 93 -54 53 -20
69 -30 69 -45 0 -33 -68 -33 -100 -1 l-25 25 -40 -22 c-22 -12 -40 -25 -40
-29 0 -15 52 -66 80 -78 18 -7 56 -11 95 -8 54 3 69 8 94 32 78 75 37 173 -86
205 -53 14 -78 37 -62 57 17 20 55 17 77 -6 l19 -21 37 22 c20 11 36 26 36 33
0 14 -35 48 -67 65 -25 13 -108 14 -139 1z"/>
<path d="M675 1722 c-3 -3 -5 -25 -5 -49 l0 -43 50 0 50 0 0 -147 0 -148 47 1
48 0 3 147 3 147 44 0 45 0 0 48 0 48 -140 1 c-77 0 -142 -2 -145 -5z"/>
<path d="M1505 1718 c-3 -7 -4 -96 -3 -198 l3 -184 30 1 c67 1 65 -1 65 58 l0
55 35 0 c54 0 112 28 135 65 39 62 20 153 -39 187 -37 22 -219 35 -226 16z"/>
<path d="M1860 1671 c0 -31 3 -86 7 -123 l6 -68 38 0 c36 0 38 2 46 38 4 20 7
75 7 122 l1 85 -52 1 -53 1 0 -56z"/>
<path d="M414 1211 c-45 -28 -64 -59 -64 -109 0 -85 48 -132 134 -132 34 0 52
6 76 26 23 20 28 29 18 35 -8 5 -20 1 -33 -11 -31 -29 -69 -34 -109 -15 -44
21 -59 46 -59 99 0 32 6 45 33 69 29 25 39 29 77 24 24 -2 52 -12 62 -21 22
-20 31 -20 31 -1 0 22 -60 55 -100 55 -19 0 -49 -9 -66 -19z"/>
<path d="M713 1215 c-88 -38 -96 -187 -12 -230 33 -17 98 -19 131 -4 36 16 68
70 68 115 0 51 -17 83 -59 111 -38 26 -81 29 -128 8z m128 -44 c40 -41 41 -98
0 -143 -62 -70 -171 -24 -171 73 0 90 107 134 171 70z"/>
<path d="M970 1099 c0 -108 2 -129 15 -129 11 0 15 12 15 50 0 49 1 50 30 50
26 0 36 -8 62 -50 17 -27 37 -50 44 -50 19 0 18 4 -11 50 -27 42 -31 60 -15
60 11 0 40 53 40 74 0 8 -10 27 -23 42 -20 23 -32 27 -90 29 l-67 3 0 -129z"/>
<path d="M1270 1212 c-116 -62 -74 -242 55 -242 88 0 135 47 135 135 0 95
-104 154 -190 107z m123 -32 c62 -49 53 -141 -17 -174 -72 -34 -146 15 -146
96 0 82 98 129 163 78z"/>
<path d="M1530 1100 c0 -107 3 -130 15 -130 11 0 15 20 17 96 l3 96 65 -96
c36 -52 71 -96 78 -96 9 0 12 32 12 130 0 109 -2 129 -15 124 -11 -4 -15 -28
-17 -97 l-3 -92 -64 92 c-35 50 -70 94 -77 97 -11 4 -14 -19 -14 -124z"/>
<path d="M1865 1203 c-4 -10 -22 -58 -40 -108 -18 -49 -36 -98 -40 -107 -5
-13 -2 -18 8 -18 8 0 20 14 26 30 10 29 12 30 71 30 59 0 61 -1 71 -30 6 -16
17 -30 25 -30 8 0 14 1 14 3 0 2 -20 57 -44 123 -34 93 -48 120 -63 122 -12 2
-23 -4 -28 -15z"/>
<path d="M320 898 c0 -2 29 -91 64 -198 l63 -195 54 3 c30 2 57 7 60 10 8 8
119 355 119 371 0 6 -19 11 -44 11 l-43 0 -43 -145 c-24 -80 -45 -143 -47
-141 -2 2 -23 66 -46 142 l-43 139 -47 3 c-26 2 -47 2 -47 0z"/>
<path d="M757 893 c-4 -3 -7 -91 -7 -194 l0 -187 38 -5 c20 -2 40 -2 45 0 4 2
7 92 7 199 l0 194 -38 0 c-21 0 -42 -3 -45 -7z"/>
<path d="M944 887 c-2 -7 -3 -95 -2 -196 l3 -184 40 0 40 0 5 63 c7 93 24 92
83 -6 36 -60 38 -61 74 -57 21 2 39 6 41 8 2 2 -13 31 -33 66 l-36 62 24 26
c53 57 61 108 24 162 -34 52 -78 69 -175 69 -58 0 -84 -4 -88 -13z"/>
<path d="M1310 748 c0 -102 4 -161 13 -178 45 -89 214 -95 267 -8 18 29 20 50
20 186 l0 153 -42 -3 -43 -3 -5 -150 -5 -150 -27 -9 c-18 -6 -38 -6 -55 0
l-28 9 -5 150 -5 150 -42 3 -43 3 0 -153z"/>
<path d="M1753 879 c-57 -36 -66 -124 -18 -169 13 -13 52 -32 86 -44 69 -24
90 -45 70 -70 -8 -9 -24 -16 -38 -16 -29 0 -80 25 -85 42 -4 10 -14 8 -41 -7
-44 -23 -46 -33 -9 -67 41 -38 65 -48 122 -48 68 0 114 23 135 67 33 69 2 128
-82 158 -98 35 -117 51 -93 80 17 21 53 19 84 -6 25 -20 27 -20 56 -2 16 9 30
22 30 28 0 14 -36 48 -67 64 -35 18 -114 13 -150 -10z"/>
</g>
</svg>
